<svg xmlns="http://www.w3.org/2000/svg" viewBox="0 0 64 64">
  <circle cx="32" cy="32" r="30" fill="#0d1117" stroke="#161b22" stroke-width="2"/>
  <path fill="#ffffff" d="M32 16c-8.8 0-16 7.3-16 16.3 0 7.2 4.5 13.4 10.8 15.6.8.1 1-.4 1-.9v-3.2c-4.4 1-5.3-2.2-5.3-2.2-.7-1.9-1.7-2.4-1.7-2.4-1.4-.9.1-.9.1-.9 1.6.1 2.5 1.7 2.5 1.7 1.4 2.5 3.8 1.8 4.7 1.4.1-1 .5-1.8 1-2.2-3.5-.4-7.1-1.8-7.1-7.9 0-1.8.6-3.3 1.6-4.5-.2-.4-.7-2.1.2-4.4 0 0 1.3-.4 4.4 1.7 1.2-.3 2.5-.5 3.8-.5s2.6.2 3.8.5c3.1-2.1 4.4-1.7 4.4-1.7.9 2.3.3 4 .2 4.4 1 1.2 1.6 2.7 1.6 4.5 0 6.1-3.6 7.5-7.1 7.9.5.5 1.1 1.5 1.1 3v4.4c0 .5.2 1 .9.9 6.3-2.2 10.8-8.4 10.8-15.6C48 23.3 40.8 16 32 16z"/>
</svg>
